<mxfile host="Electron" modified="2023-08-26T12:06:57.550Z" agent="Mozilla/5.0 (Windows NT 10.0; Win64; x64) AppleWebKit/537.36 (KHTML, like Gecko) draw.io/21.6.8 Chrome/114.0.5735.289 Electron/25.5.0 Safari/537.36" etag="gwB_T6Ren-YgjlhiFBzi" version="21.6.8" type="device">
  <diagram name="Seite-1" id="4rJSiPj_Ss8soUWPfwEB">
    <mxGraphModel dx="889" dy="909" grid="1" gridSize="10" guides="1" tooltips="1" connect="1" arrows="1" fold="1" page="1" pageScale="1" pageWidth="827" pageHeight="1169" math="0" shadow="0">
      <root>
        <mxCell id="0" />
        <mxCell id="1" parent="0" />
        <mxCell id="RqFGgyVNi3AueoJHFHxD-10" style="edgeStyle=orthogonalEdgeStyle;rounded=0;orthogonalLoop=1;jettySize=auto;html=1;entryX=0.5;entryY=0;entryDx=0;entryDy=0;entryPerimeter=0;" edge="1" parent="1" source="RqFGgyVNi3AueoJHFHxD-1" target="RqFGgyVNi3AueoJHFHxD-4">
          <mxGeometry relative="1" as="geometry" />
        </mxCell>
        <mxCell id="RqFGgyVNi3AueoJHFHxD-1" value="Query Handler" style="rounded=1;whiteSpace=wrap;html=1;" vertex="1" parent="1">
          <mxGeometry x="190" y="300" width="120" height="60" as="geometry" />
        </mxCell>
        <mxCell id="RqFGgyVNi3AueoJHFHxD-5" value="Infos anfragen" style="edgeStyle=orthogonalEdgeStyle;rounded=0;orthogonalLoop=1;jettySize=auto;html=1;entryX=0;entryY=0.5;entryDx=0;entryDy=0;exitX=0.5;exitY=0;exitDx=0;exitDy=0;" edge="1" parent="1" source="RqFGgyVNi3AueoJHFHxD-2" target="RqFGgyVNi3AueoJHFHxD-1">
          <mxGeometry relative="1" as="geometry" />
        </mxCell>
        <mxCell id="RqFGgyVNi3AueoJHFHxD-6" value="Infos Ã¤ndern" style="edgeStyle=orthogonalEdgeStyle;rounded=0;orthogonalLoop=1;jettySize=auto;html=1;entryX=0;entryY=0.5;entryDx=0;entryDy=0;exitX=0.5;exitY=1;exitDx=0;exitDy=0;" edge="1" parent="1" source="RqFGgyVNi3AueoJHFHxD-2" target="RqFGgyVNi3AueoJHFHxD-3">
          <mxGeometry relative="1" as="geometry" />
        </mxCell>
        <mxCell id="RqFGgyVNi3AueoJHFHxD-2" value="Client" style="rounded=1;whiteSpace=wrap;html=1;" vertex="1" parent="1">
          <mxGeometry x="20" y="400" width="120" height="60" as="geometry" />
        </mxCell>
        <mxCell id="RqFGgyVNi3AueoJHFHxD-8" value="Event" style="edgeStyle=orthogonalEdgeStyle;rounded=0;orthogonalLoop=1;jettySize=auto;html=1;" edge="1" parent="1" source="RqFGgyVNi3AueoJHFHxD-3" target="RqFGgyVNi3AueoJHFHxD-7">
          <mxGeometry relative="1" as="geometry" />
        </mxCell>
        <mxCell id="RqFGgyVNi3AueoJHFHxD-12" style="edgeStyle=orthogonalEdgeStyle;rounded=0;orthogonalLoop=1;jettySize=auto;html=1;exitX=0.5;exitY=1;exitDx=0;exitDy=0;entryX=0;entryY=0.5;entryDx=0;entryDy=0;entryPerimeter=0;" edge="1" parent="1" source="RqFGgyVNi3AueoJHFHxD-3" target="RqFGgyVNi3AueoJHFHxD-11">
          <mxGeometry relative="1" as="geometry" />
        </mxCell>
        <mxCell id="RqFGgyVNi3AueoJHFHxD-3" value="Command Handler" style="rounded=1;whiteSpace=wrap;html=1;" vertex="1" parent="1">
          <mxGeometry x="190" y="500" width="120" height="60" as="geometry" />
        </mxCell>
        <mxCell id="RqFGgyVNi3AueoJHFHxD-4" value="Read DB" style="shape=cylinder3;whiteSpace=wrap;html=1;boundedLbl=1;backgroundOutline=1;size=15;" vertex="1" parent="1">
          <mxGeometry x="510" y="360" width="60" height="80" as="geometry" />
        </mxCell>
        <mxCell id="RqFGgyVNi3AueoJHFHxD-9" style="edgeStyle=orthogonalEdgeStyle;rounded=0;orthogonalLoop=1;jettySize=auto;html=1;entryX=0.5;entryY=1;entryDx=0;entryDy=0;entryPerimeter=0;" edge="1" parent="1" source="RqFGgyVNi3AueoJHFHxD-7" target="RqFGgyVNi3AueoJHFHxD-4">
          <mxGeometry relative="1" as="geometry" />
        </mxCell>
        <mxCell id="RqFGgyVNi3AueoJHFHxD-7" value="Event Handler" style="whiteSpace=wrap;html=1;rounded=1;" vertex="1" parent="1">
          <mxGeometry x="480" y="500" width="120" height="60" as="geometry" />
        </mxCell>
        <mxCell id="RqFGgyVNi3AueoJHFHxD-11" value="Write DB" style="shape=cylinder3;whiteSpace=wrap;html=1;boundedLbl=1;backgroundOutline=1;size=15;" vertex="1" parent="1">
          <mxGeometry x="510" y="585" width="60" height="80" as="geometry" />
        </mxCell>
        <mxCell id="RqFGgyVNi3AueoJHFHxD-13" value="" style="endArrow=none;dashed=1;html=1;rounded=0;" edge="1" parent="1">
          <mxGeometry width="50" height="50" relative="1" as="geometry">
            <mxPoint x="10" y="480" as="sourcePoint" />
            <mxPoint x="610" y="480" as="targetPoint" />
          </mxGeometry>
        </mxCell>
      </root>
    </mxGraphModel>
  </diagram>
</mxfile>
